<svg xmlns="http://www.w3.org/2000/svg" viewBox="0 0 24 24"><path fill="#f5f7fb" d="M12 .5a12 12 0 0 0-3.79 23.38c.6.11.82-.26.82-.58v-2.24c-3.34.73-4.04-1.42-4.04-1.42-.55-1.39-1.33-1.76-1.33-1.76-1.09-.75.08-.73.08-.73 1.2.08 1.83 1.23 1.83 1.23 1.07 1.83 2.81 1.3 3.49 1 .11-.78.42-1.3.76-1.6-2.67-.3-5.47-1.34-5.47-5.94 0-1.31.47-2.38 1.24-3.22-.12-.3-.54-1.52.12-3.17 0 0 1.01-.32 3.3 1.23a11.5 11.5 0 0 1 6 0c2.29-1.55 3.3-1.23 3.3-1.23.66 1.65.24 2.87.12 3.17.77.84 1.24 1.91 1.24 3.22 0 4.61-2.81 5.64-5.49 5.94.43.37.82 1.1.82 2.22v3.3c0 .32.22.69.83.57A12 12 0 0 0 12 .5Z"/></svg>